<?xml version="1.0" encoding="utf-8"?>
<!-- Generator: Adobe Illustrator 13.0.0, SVG Export Plug-In . SVG Version: 6.00 Build 14948)  -->
<!DOCTYPE svg PUBLIC "-//W3C//DTD SVG 1.0//EN" "http://www.w3.org/TR/2001/REC-SVG-20010904/DTD/svg10.dtd">
<svg version="1.0" id="Layer_1" xmlns="http://www.w3.org/2000/svg" xmlns:xlink="http://www.w3.org/1999/xlink" x="0px" y="0px"
	 width="293.034px" height="366.056px" viewBox="0 0 293.034 366.056" enable-background="new 0 0 293.034 366.056"
	 xml:space="preserve">
<g>
	<g>
		<path fill="#F0DEBA" d="M42.786,291.11c11.428-12.629,22.31-25.607,32.568-38.848c-34.371-1.055-60.21-6.732-74.042-17.928
			L1.1,234.121l-0.367-0.485l-0.201-0.348l-0.361-0.929l-0.102-0.385L0,231.362l0.005-0.401l0.264-1.539l0.109-0.379l0.253-0.562
			l0.209-0.344l0.713-0.834l0.223-0.205l0.498-0.35l0.356-0.188c13.02-4.309,22.832-10.192,29.869-17.601l-25.08,10.868l-0.482,0.14
			l-0.247,0.041l-0.579,0.038l-0.196-0.004l-0.325-0.034l-0.194-0.037l-0.964-0.273l-0.46-0.197l-0.653-0.435l-0.379-0.349
			l-1.035-1.444l-0.234-0.448l-0.051-0.131l-0.18-0.619l-0.045-0.238l-0.03-0.325l-0.001-0.196l0.081-1.032l0.032-0.194l0.073-0.285
			l0.292-0.704l0.266-0.439c22.283-23.228,35.781-47.191,41.008-72.105l-6.076,3.591l-0.457,0.196l-0.133,0.041l-0.626,0.135
			l-0.239,0.028l-0.324,0.007l-0.195-0.011l-0.985-0.145l-0.479-0.135l-0.128-0.051l-0.571-0.29l-0.418-0.293l-1.217-1.288
			l-0.291-0.409l-0.328-0.706l-0.14-0.49l-0.041-0.246l-0.063-1.026l0.004-0.196l0.035-0.322l0.038-0.191l0.149-0.523l0.196-0.457
			l0.074-0.13c2.774-3.908,5.193-7.901,7.305-12.062c-1.216,0.282-2.417,0.497-3.604,0.643l-0.413,0.007l-0.643-0.086l-0.409-0.11
			l-0.954-0.432l-0.358-0.218l-0.533-0.452l-0.25-0.277l-0.876-1.355l-0.185-0.373l-0.197-0.619l-0.075-0.417l-0.015-1.046
			l0.044-0.417l0.165-0.628l0.16-0.392c10.599-16.659,13.802-25.482,13.329-28.225l-0.038-0.475
			c0.572-75.492,111.159-111.919,132.251-77.919c20.608-7.373,40.243,0.055,52.441,21.102c10.192,9.407,15.681,22.771,15.681,39.508
			c-0.3,25.359,5.885,46.67,18.334,64.13l0.236,0.437l0.052,0.129l0.197,0.651l0.039,0.197l0.035,0.322l0.005,0.196l-0.064,1.026
			l-0.028,0.193l-0.064,0.284l-0.277,0.705l-0.255,0.441l-1.179,1.323l-0.383,0.325l-0.676,0.388l-0.477,0.182l-0.139,0.036
			l-1.115,0.175l-0.2,0.012l-0.323-0.007l-0.193-0.021l-0.533-0.103l-0.473-0.156l-0.138-0.063l-6.194-3.651
			c5.226,24.915,18.724,48.877,40.832,71.886l0.298,0.402l0.346,0.704l0.151,0.491l0.045,0.247l0.081,1.032l-0.001,0.196
			l-0.03,0.325l-0.035,0.193l-0.142,0.529l-0.191,0.463l-0.071,0.129l-0.921,1.346l-0.339,0.376l-0.622,0.478l-0.452,0.244
			l-0.135,0.055l-1.09,0.32l-0.197,0.039l-0.325,0.034l-0.195,0.004l-0.579-0.038l-0.195-0.029l-0.286-0.068l-25.33-10.953
			c7.036,7.408,16.841,13.289,29.666,17.518l0.359,0.159l0.521,0.327l0.395,0.334l0.614,0.697l0.2,0.287l0.281,0.547l0.14,0.378
			l0.297,1.532l0.032,0.394l-0.037,0.614l-0.073,0.396l-0.33,0.939l-0.175,0.358l-0.347,0.509l-0.308,0.345
			c-14.319,11.599-41.265,17.254-77.268,18.055c10.237,13.208,21.102,26.16,32.505,38.764c13.721,16.242-5.345,29.707-17.503,29.695
			c-6.584,0.012-13.391-2.801-18.071-9.531c-11.476-16.635-21.209-32.629-29.204-47.969c2.215,27.56,9.499,57.792,32.309,90.749
			l3.347,4.837l0.169,0.312l0.22,0.585l0.095,0.397l0.078,1.007l-0.014,0.404l-0.115,0.614l-0.125,0.389l-0.715,1.403l-0.222,0.336
			l-0.493,0.539l-0.236,0.2l-0.85,0.532l-0.364,0.174l-0.598,0.184l-0.402,0.071l-67.401,0.017h-4.012H75.717l-0.396-0.04
			l-0.605-0.151l-0.381-0.148l-0.873-0.509l-0.369-0.284l-0.428-0.44l-0.217-0.284l-0.746-1.389l-0.148-0.372l-0.148-0.608
			l-0.046-0.406l0.046-1.008l0.065-0.399l0.188-0.596l0.172-0.372l3.436-4.993c22.893-33.075,30.148-63.409,32.408-91.06
			c-8.025,15.436-17.813,31.532-29.366,48.279c-7.175,10.315-18.972,11.198-27.501,7.592
			C41.235,314.819,32.786,302.948,42.786,291.11"/>
		<path fill="#DBAD6B" d="M53.892,73.374L146.514,26.4c54.218-11.653,92.624,3.97,92.624,46.974
			c-0.31,26.171,6.085,48.446,19.188,66.821l-14.555-8.6c3.68,29.549,18.234,57.557,43.665,84.023l-39.696-17.202
			c7.177,14.964,20.851,25.771,41.019,32.419c-20.035,16.215-70.097,20.846-142.244,13.893
			C74.37,251.681,24.307,247.05,4.271,230.835c20.168-6.648,33.841-17.455,41.018-32.419L5.595,215.618
			c25.429-26.466,39.984-54.474,43.665-84.023l-14.555,8.6C47.807,121.82,54.203,99.545,53.892,73.374"/>
		<path fill="#DAB37A" d="M78.452,148.445l65.005-22.145v-1.563l2.294,0.782l2.294-0.782v1.563l65.005,22.145
			c5.47,15.907,17.197,28.908,35.178,39.003c-9.748,0.689-20.199-0.33-31.354-3.06c3.767,15.971,14.219,29.991,31.354,42.062
			c-21.371,9.363-55.53,13.216-102.477,11.557c-46.946,1.659-81.107-2.193-102.478-11.557c17.136-12.07,27.588-26.091,31.355-42.062
			c-11.155,2.729-21.608,3.749-31.355,3.06C61.255,177.354,72.981,164.353,78.452,148.445"/>
		<path fill="#F2E8C7" d="M116.315,233.32c-9.354,23.409-23.28,48.524-41.779,75.341c-12.236,17.59-41.415,1-28.296-14.529
			c23.319-25.773,44.209-52.789,62.666-81.046c-0.215-0.128,7.799-14.917,7.799-14.917l26.188-1.689v-0.259l2.007,0.13l2.006-0.13
			v0.259l26.188,1.689c0,0,8.008,14.792,7.79,14.922c18.457,28.255,39.345,55.269,62.662,81.041
			c13.121,15.529-16.059,32.119-28.294,14.529c-18.492-26.806-32.415-51.91-41.768-75.311c0.016,35.837,2.102,77.873,34.76,125.057
			h-61.338h-4.013H81.554C114.221,311.21,116.299,269.164,116.315,233.32"/>
		<path fill-rule="evenodd" clip-rule="evenodd" fill="#F2E8C7" d="M49.259,110.423c0-52.251,42.357-94.609,94.608-94.609
			c52.252,0,94.61,42.358,94.61,94.609s-42.358,94.609-94.61,94.609C91.617,205.032,49.259,162.674,49.259,110.423"/>
		<path fill-rule="evenodd" clip-rule="evenodd" fill="#DBAD6B" d="M172.979,29.047c-59.545,3.969-48.656,69.432-90.64,72.114
			l2.647-15.879c-20.539,22.611-37.521,34.74-50.944,36.389c10.103-15.849,14.735-26.214,13.894-31.096
			C48.598,3.244,186.873-15.942,172.979,29.047"/>
		<path fill-rule="evenodd" clip-rule="evenodd" fill="#DBAD6B" d="M170.995,19.784c32.419-16.54,63.514,6.616,65.497,68.807
			c-28.563-32.005-50.617-61.557-66.158-60.868L170.995,19.784z"/>
		<path fill="#D6BF91" d="M135.081,143.438c0-4.853,3.936-8.788,8.787-8.788c4.854,0,8.788,3.935,8.788,8.788
			c0,0.602-0.06,1.19-0.176,1.757c-0.813-4.01-4.36-7.029-8.612-7.029c-4.251,0-7.797,3.019-8.61,7.029
			C135.142,144.628,135.081,144.04,135.081,143.438"/>
		<path fill-rule="evenodd" clip-rule="evenodd" fill="#613314" d="M73.569,119.414c11.065-13.125,26.121-18.243,45.165-15.354
			C101.045,105.054,85.99,110.172,73.569,119.414"/>
		<path fill-rule="evenodd" clip-rule="evenodd" fill="#613314" d="M214.167,119.414c-11.063-13.125-26.119-18.243-45.164-15.354
			C186.692,105.054,201.748,110.172,214.167,119.414"/>
		<g opacity="0.5">
			<g>
				<defs>
					<rect id="SVGID_1_" x="49.016" y="22.967" width="186.542" height="94.109"/>
				</defs>
				<clipPath id="SVGID_2_">
					<use xlink:href="#SVGID_1_"  overflow="visible"/>
				</clipPath>
				<path clip-path="url(#SVGID_2_)" fill-rule="evenodd" clip-rule="evenodd" fill="#DBAD6B" d="M49.016,117.076
					c13.795-2.847,25.771-13.304,35.929-31.37l2.339,3.508l-4.95,11.067c40.1,14.184,43.1-62.35,90.992-71.858
					c18.49,28.028,39.234,48.033,62.232,60.011l-24.474-54.283l-40.486-11.184L94.842,53.285l-44.656,57.283L49.016,117.076z"/>
			</g>
		</g>
		<path fill="#FFFFFF" d="M147.606,215.604c14.6,0.783,19.934,5.199,25.878,17.519c0.008,35.887,2.032,78.001,34.76,125.285h-61.338
			h-4.013H81.554c32.753-47.322,34.756-89.465,34.761-125.37c5.928-12.255,11.271-16.651,25.837-17.434c0,0,1.85-0.123,2.727-0.103
			C145.756,215.48,147.606,215.604,147.606,215.604"/>
		<path fill="#613314" d="M89.954,136.592c0-7.814,6.335-14.148,14.147-14.148c7.814,0,14.148,6.334,14.148,14.148
			c0,2.042-0.433,3.982-1.211,5.735H91.165C90.386,140.574,89.954,138.634,89.954,136.592"/>
		<path fill="#613314" d="M169.488,136.592c0-7.814,6.335-14.148,14.147-14.148c7.815,0,14.149,6.334,14.149,14.148
			c0,2.042-0.434,3.982-1.212,5.735h-25.875C169.921,140.574,169.488,138.634,169.488,136.592"/>
		<g opacity="0.28">
			<g>
				<defs>
					<rect id="SVGID_3_" x="93.012" y="122.444" width="107.83" height="19.883"/>
				</defs>
				<clipPath id="SVGID_4_">
					<use xlink:href="#SVGID_3_"  overflow="visible"/>
				</clipPath>
				<path clip-path="url(#SVGID_4_)" fill="#613314" d="M172.546,136.592c0-7.814,6.334-14.148,14.148-14.148
					c7.813,0,14.147,6.334,14.147,14.148c0,2.042-0.433,3.982-1.211,5.735h-25.874C172.98,140.574,172.546,138.634,172.546,136.592
					 M93.013,136.592c0-7.814,6.334-14.148,14.146-14.148c7.814,0,14.149,6.334,14.149,14.148c0,2.042-0.434,3.982-1.211,5.735
					H94.224C93.445,140.574,93.013,138.634,93.013,136.592"/>
			</g>
		</g>
		<g opacity="0.25">
			<g>
				<defs>
					<rect id="SVGID_5_" x="73.667" y="103.771" width="44.817" height="15.647"/>
				</defs>
				<clipPath id="SVGID_6_">
					<use xlink:href="#SVGID_5_"  overflow="visible"/>
				</clipPath>
				<polygon clip-path="url(#SVGID_6_)" fill-rule="evenodd" clip-rule="evenodd" fill="#613314" points="73.667,119.418 
					118.483,104.056 109.665,103.771 94.011,106.755 80.354,113.584 75.799,117.145 				"/>
			</g>
		</g>
		<g opacity="0.25">
			<g>
				<defs>
					<rect id="SVGID_7_" x="169.147" y="103.771" width="44.814" height="15.647"/>
				</defs>
				<clipPath id="SVGID_8_">
					<use xlink:href="#SVGID_7_"  overflow="visible"/>
				</clipPath>
				<polygon clip-path="url(#SVGID_8_)" fill-rule="evenodd" clip-rule="evenodd" fill="#613314" points="213.962,119.418 
					169.147,104.056 177.965,103.771 193.618,106.755 207.276,113.584 211.831,117.145 				"/>
			</g>
		</g>
		<path fill="#F0A8B0" d="M126.661,161.063c3.868,3.598,9.742,6.405,17.207,6.498c7.467-0.093,13.341-2.9,17.207-6.498
			c-2.674,16.385-8.442,25.822-16.823,26.359l-0.384,0.02l-0.382,0.006C135.105,186.886,129.336,177.448,126.661,161.063"/>
		<path fill="#D6BF91" d="M136.97,190.491h6.702h0.392h6.704c-1.59,1.441-3.025,2.104-6.704,2.146h-0.392
			C139.994,192.596,138.56,191.933,136.97,190.491"/>
		<path fill-rule="evenodd" clip-rule="evenodd" fill="#FFFFFF" d="M96.665,129.83c0-2.445,1.982-4.427,4.429-4.427
			c2.444,0,4.426,1.982,4.426,4.427c0,2.445-1.981,4.427-4.426,4.427C98.647,134.257,96.665,132.275,96.665,129.83"/>
		<path fill-rule="evenodd" clip-rule="evenodd" fill="#FFFFFF" d="M93.596,132.98c0-1.689,1.367-3.058,3.058-3.058
			c1.688,0,3.057,1.369,3.057,3.058c0,1.688-1.369,3.058-3.057,3.058C94.963,136.039,93.596,134.668,93.596,132.98"/>
		<path fill-rule="evenodd" clip-rule="evenodd" fill="#FFFFFF" d="M176.201,129.83c0-2.445,1.98-4.427,4.427-4.427
			c2.445,0,4.427,1.982,4.427,4.427c0,2.445-1.981,4.427-4.427,4.427C178.181,134.257,176.201,132.275,176.201,129.83"/>
		<path fill-rule="evenodd" clip-rule="evenodd" fill="#FFFFFF" d="M173.129,132.98c0-1.689,1.369-3.058,3.059-3.058
			c1.688,0,3.057,1.369,3.057,3.058c0,1.688-1.369,3.058-3.057,3.058C174.499,136.039,173.129,134.668,173.129,132.98"/>
		<path fill="#D6BF91" d="M104.754,174.226l-2.184-6.338l-0.127-0.37l-2.182-6.338c1.881,1.034,2.975,2.174,4.214,5.639l0.127,0.369
			C105.76,170.681,105.6,172.253,104.754,174.226"/>
		<path fill="#D6BF91" d="M183.201,174.226l2.184-6.338l0.127-0.37l2.182-6.338c-1.881,1.034-2.974,2.174-4.213,5.639l-0.127,0.369
			C182.196,170.681,182.356,172.253,183.201,174.226"/>
		<path fill="#F5F6F6" d="M168.028,358.407c-8.771-12.964-15.8-34.601-21.088-64.908c7.839,28.456,17.603,50.093,29.293,64.908
			H168.028z M112.529,358.407c11.689-14.815,21.454-36.452,29.292-64.908c-5.288,30.308-12.316,51.944-21.088,64.908H112.529z"/>
		<path fill="#E6C28C" d="M52.592,314.64c15.79-7.841,35.988-32.447,60.595-73.818c-9.23,21.251-22.114,43.865-38.652,67.839
			C68.889,316.778,59.633,317.617,52.592,314.64"/>
		<path fill="#E6C28C" d="M237.142,314.64c-15.789-7.841-35.988-32.447-60.594-73.818c9.23,21.251,22.113,43.865,38.651,67.839
			C220.845,316.778,230.101,317.617,237.142,314.64"/>
		<path fill="#F5F6F6" d="M125.55,240.427l5.459,40.004l-10.457,10.008c2.875-16.742,3.36-32.523,3.405-47.273L125.55,240.427z"/>
		<path fill="#F5F6F6" d="M164.845,240.427l-5.46,40.004l10.456,10.008c-2.874-16.742-3.359-32.523-3.405-47.273L164.845,240.427z"
			/>
		<path fill-rule="evenodd" clip-rule="evenodd" fill="#DAB37A" d="M154.163,16.907c-32.368,0.46-53.782,19.579-64.239,57.356
			C103.946,44.409,125.359,25.29,154.163,16.907"/>
		<path fill-rule="evenodd" clip-rule="evenodd" fill="#DAB37A" d="M87.629,36.791c-14.19,6.198-23.112,19.199-26.768,39.002
			C69.054,56.721,77.976,43.72,87.629,36.791"/>
	</g>
</g>
</svg>
