<?xml version="1.0" encoding="utf-8"?>
<!-- Generator: Adobe Illustrator 13.0.0, SVG Export Plug-In . SVG Version: 6.00 Build 14948)  -->
<!DOCTYPE svg PUBLIC "-//W3C//DTD SVG 1.0//EN" "http://www.w3.org/TR/2001/REC-SVG-20010904/DTD/svg10.dtd">
<svg version="1.0" id="Layer_1" xmlns="http://www.w3.org/2000/svg" xmlns:xlink="http://www.w3.org/1999/xlink" x="0px" y="0px"
	 width="248.385px" height="395.422px" viewBox="0 0 248.385 395.422" enable-background="new 0 0 248.385 395.422"
	 xml:space="preserve">
<g>
	<g>
		<path fill="#F2E8C7" d="M83.867,239.258h-1.156c-34.802,0-63.013-28.212-63.013-63.013v-2.718C7.369,170.51,0,154.963,0,139.537
			c0-15.532,7.492-31.23,19.998-34.061C-4.889-26.871,171.188-10.63,201.706,25.84l4.85-8.292l0.875-0.691l1.987-0.604l1.111,0.086
			l2.745,1.329l0.758,0.819l0.758,1.932l0.001,1.115l-3.578,9.164l12.05-0.426l0.985,0.315l1.544,1.183l0.559,0.868l0.678,2.925
			l-0.12,1.026l-0.865,1.742l-0.745,0.716l-11.612,5.191c14.447,17.574,19.655,38.232,15.697,61.493
			c11.913,3.423,19.001,18.655,19.001,33.806c0,15.426-7.37,30.973-19.699,33.99v2.718c0,34.801-28.211,63.013-63.012,63.013h-1.158
			l-0.76,1.74l-0.153,0.2l14.596,21.399l0.432,0.055l0.74,0.303l2.117,1.619l0.485,0.635l0.586,1.428l0.039,0.316l1.024,0.815
			l0.453,0.596l0.57,1.334l0.117,0.739l-0.032,0.342l0.787,0.836l5.04-3.399l0.551-0.231l1.147-0.232l0.596-0.003l2.124,0.413
			l0.552,0.226l0.977,0.646l0.424,0.421l14.038,20.812l0.23,0.55l0.234,1.147l0.002,0.597l-0.413,2.123l-0.225,0.554l-0.646,0.976
			l-0.421,0.424l-4.937,3.33c6.91,8.436,14.11,16.792,21.51,24.97c8.589,10.168,3.463,20.891-4.549,25.944
			c-8.653,5.456-22.755,6.032-30.974-5.781c-5.817-8.435-11.191-16.709-16.114-24.811l-2.512,1.693l-0.551,0.231l-1.146,0.233
			l-0.597,0.003l-2.124-0.413l-0.552-0.227l-0.976-0.646l-0.424-0.42l-6.889-10.214c0.31,2.389,0.646,4.658,1.007,6.809
			l-0.044,0.695l-0.39,1.297l-0.347,0.604l-1.659,1.775l-0.578,0.388l-1.269,0.478l-0.689,0.091
			c-1.636-0.161-3.378-0.513-5.212-1.031c2.998,14.474,7.897,27.966,13.347,40.519c10.414,2.818,17.239,12.635,17.047,27.059
			l-0.093,0.506l-0.351,0.955l-0.257,0.447l-1.221,1.478l-0.391,0.336l-0.871,0.524l-0.48,0.188
			c-15.261,3.136-27.98,2.248-36.764-4.178l-1.128-0.001l-0.434-0.062l-0.78-0.231l-0.374-0.168l-6.118-3.809l-0.381-0.338
			l-0.631-0.78l-0.249-0.443l-0.643-1.784l-0.09-0.5l-0.011-1.004l0.079-0.503l3.126-9.337c-3.061-9.364-5.7-19.137-7.851-29.318
			c-2.15,10.182-4.79,19.954-7.85,29.318l3.126,9.337l0.079,0.503l-0.012,1.004l-0.09,0.5l-0.642,1.784l-0.249,0.443l-0.631,0.78
			l-0.382,0.338l-6.117,3.809l-0.375,0.168l-0.78,0.231l-0.405,0.062l-1.21,0.024c-8.585,6.445-21.321,7.316-36.711,4.154
			l-0.48-0.188l-0.871-0.524l-0.391-0.336l-1.221-1.478l-0.258-0.447l-0.349-0.955l-0.094-0.506
			c-0.191-14.424,6.633-24.24,17.047-27.059c5.45-12.553,10.35-26.045,13.347-40.519c-1.834,0.519-3.576,0.87-5.211,1.031
			l-0.691-0.091l-1.267-0.478l-0.578-0.388l-1.66-1.775l-0.346-0.604l-0.391-1.297l-0.044-0.695c0.361-2.15,0.696-4.42,1.007-6.809
			l-6.889,10.214l-0.424,0.42l-0.976,0.646l-0.553,0.227l-2.123,0.413l-0.597-0.003l-1.147-0.233l-0.55-0.23l-2.512-1.694
			c-4.922,8.102-10.296,16.376-16.115,24.811c-8.218,11.813-22.32,11.238-30.972,5.781c-8.014-5.054-13.139-15.775-4.549-25.944
			c7.399-8.179,14.594-16.53,21.509-24.97l-4.938-3.33l-0.42-0.424l-0.645-0.976l-0.227-0.554l-0.412-2.123l0.002-0.597l0.233-1.147
			l0.232-0.55l14.038-20.812l0.424-0.421l0.975-0.646l0.553-0.226l2.123-0.413l0.597,0.003l1.147,0.232l0.551,0.231l5.039,3.399
			l0.676-0.746l0.081-0.432l0.116-0.739l0.569-1.334l0.454-0.596l1.024-0.815l0.039-0.316l0.585-1.428l0.486-0.635l2.117-1.619
			l0.741-0.303l0.431-0.055l14.596-21.399l-0.152-0.2L83.867,239.258z"/>
		<rect x="107.136" y="229.594" fill-rule="evenodd" clip-rule="evenodd" fill="#FFFFFF" width="33.831" height="29.942"/>
		<path fill-rule="evenodd" clip-rule="evenodd" fill="#CBCCCE" d="M105.823,304.422c-2.239,26.572-11.628,50.062-21.24,70.473
			l25.627-0.577c6.617-18.929,11.48-39.612,13.982-62.046V299.17h-17.503L105.823,304.422z"/>
		<path fill-rule="evenodd" clip-rule="evenodd" fill="#CBCCCE" d="M142.561,304.422c2.239,26.572,11.629,50.062,21.24,70.473
			l-25.626-0.577c-6.617-18.929-11.48-39.612-13.982-62.046V299.17h17.503L142.561,304.422z"/>
		<g opacity="0.22">
			<g>
				<defs>
					<rect id="SVGID_1_" x="106.603" y="299.17" width="35.179" height="75.217"/>
				</defs>
				<clipPath id="SVGID_2_">
					<use xlink:href="#SVGID_1_"  overflow="visible"/>
				</clipPath>
				<path clip-path="url(#SVGID_2_)" d="M106.603,374.225c6.954-24.51,10.777-44.903,11.472-61.182l-11.414-13.696l0.029-0.177
					h17.503h17.503l0.029,0.177l-11.414,13.696c0.693,16.278,4.518,36.672,11.471,61.182l-0.576,0.162l-3.031-0.068
					c-6.617-18.93-11.48-39.613-13.982-62.047c-2.502,22.434-7.365,43.117-13.983,62.047l-3.031,0.068L106.603,374.225z"/>
			</g>
		</g>
		<polygon fill-rule="evenodd" clip-rule="evenodd" fill="#F5F6F6" points="120.168,294.88 133.517,300.436 138.605,242.65 
			120.168,259.771 		"/>
		<polygon fill-rule="evenodd" clip-rule="evenodd" fill="#FFFFFF" points="136.732,246.477 121.697,260.438 121.697,293.859 
			132.175,298.221 		"/>
		<polygon fill-rule="evenodd" clip-rule="evenodd" fill="#F5F6F6" points="128.239,294.88 114.889,300.436 109.801,242.65 
			128.239,259.771 		"/>
		<polygon fill-rule="evenodd" clip-rule="evenodd" fill="#FFFFFF" points="111.674,246.477 126.709,260.438 126.709,293.859 
			116.231,298.221 		"/>
		<path fill="#F5F6F6" d="M115.059,234.307c0.969,3.723,3.504,8.154,7.604,13.293l1.638,0.423l1.639-0.423
			c4.099-5.139,6.635-9.57,7.603-13.293l2.897-0.554c-1.601,4.61-5.159,10.046-10.674,16.304l-1.465-1.088l-1.464,1.088
			c-5.515-6.258-9.073-11.693-10.674-16.304L115.059,234.307z"/>
		<path fill-rule="evenodd" clip-rule="evenodd" fill="#E3D4AD" d="M97.426,232.361c-20.632,33.565-44.595,65.432-71.887,95.595
			c-13.12,15.53,16.06,32.12,28.296,14.53c19.202-27.837,33.478-53.84,42.826-78.005L97.426,232.361z"/>
		<path fill="#D6BF91" d="M29.081,347c17.121-6.975,35.314-28.075,54.579-63.299l3.825,1.852
			c-8.694,18.039-19.912,37.017-33.65,56.934C47.397,351.74,36.271,351.534,29.081,347"/>
		<path fill-rule="evenodd" clip-rule="evenodd" fill="#CBCCCE" d="M96.762,236.488c0.615,35.867-0.636,63.071-3.752,81.613
			c5.731-0.567,14.178-4.166,25.338-10.794l-7.329-46.058l-4.329-25.916L96.762,236.488z"/>
		<polygon fill-rule="evenodd" clip-rule="evenodd" fill="#CBCCCE" points="65.307,280.527 66.172,274.408 68.538,273.832 
			68.193,270.022 70.847,270.889 70.27,266.791 72.29,267.656 97.917,230.082 97.627,265.925 90.067,282.836 90.067,285.145 
			87.758,285.145 89.202,288.954 87.181,288.377 88.334,290.975 84.238,293.918 		"/>
		<g opacity="0.27">
			<g>
				<defs>
					<rect id="SVGID_3_" x="65.307" y="276.138" width="22.829" height="17.78"/>
				</defs>
				<clipPath id="SVGID_4_">
					<use xlink:href="#SVGID_3_"  overflow="visible"/>
				</clipPath>
				<polygon clip-path="url(#SVGID_4_)" points="65.928,276.138 88.136,291.117 84.238,293.918 65.307,280.527 				"/>
			</g>
		</g>
		
			<rect x="44.306" y="282.61" transform="matrix(-0.829 -0.5592 0.5592 -0.829 -42.5781 577.3055)" fill-rule="evenodd" clip-rule="evenodd" fill="#F5F6F6" width="45.325" height="25.104"/>
		<path fill-rule="evenodd" clip-rule="evenodd" fill="#CBCCCE" d="M46.895,291.551c0-1.466,1.188-2.654,2.655-2.654
			c1.466,0,2.655,1.188,2.655,2.654c0,1.467-1.189,2.655-2.655,2.655C48.083,294.206,46.895,293.018,46.895,291.551"/>
		<g opacity="0.16">
			<g>
				<defs>
					<rect id="SVGID_5_" x="89.661" y="230.082" width="28.687" height="78.46"/>
				</defs>
				<clipPath id="SVGID_6_">
					<use xlink:href="#SVGID_5_"  overflow="visible"/>
				</clipPath>
				<path clip-path="url(#SVGID_6_)" d="M116.241,308.542l-0.079-0.249c-8.067-25.31-16.532-44.49-25.348-57.657l-1.154-1.725
					l7.541-6.223l-6.86-1.499l7.576-11.107l-0.051,6.278l8.823-1.026l4.329,25.916l7.329,46.058
					C117.635,307.731,116.932,308.143,116.241,308.542"/>
			</g>
		</g>
		<path fill-rule="evenodd" clip-rule="evenodd" fill="#DEDFE0" d="M101.726,221.367c-5.75,5.211-10.406,10.848-13.968,16.91
			l14.545,3.176l-9.581,7.906c8.987,13.424,17.53,32.837,25.626,58.236l-6.406-76.59L101.726,221.367z"/>
		<path fill-rule="evenodd" clip-rule="evenodd" d="M110.73,368.199l4.386,13.103l-6.118,3.81l-2.021-1.155l-0.865,1.731
			c-7.199,5.385-18.281,6.539-33.245,3.464c-0.314-23.61,19.797-29.379,35.842-16.565L110.73,368.199z"/>
		<path fill-rule="evenodd" clip-rule="evenodd" fill="#E3D4AD" d="M150.959,232.361c20.632,33.565,44.595,65.432,71.887,95.595
			c13.119,15.53-16.06,32.12-28.296,14.53c-19.202-27.837-33.478-53.84-42.826-78.005L150.959,232.361z"/>
		<path fill="#D6BF91" d="M219.303,347c-17.12-6.975-35.314-28.075-54.578-63.299l-3.825,1.852
			c8.694,18.039,19.911,37.017,33.65,56.934C200.987,351.74,212.114,351.534,219.303,347"/>
		<path fill-rule="evenodd" clip-rule="evenodd" fill="#CBCCCE" d="M151.622,236.488c-0.614,35.867,0.636,63.071,3.752,81.613
			c-5.731-0.567-14.177-4.166-25.338-10.794l7.33-46.058l4.329-25.916L151.622,236.488z"/>
		<polygon fill-rule="evenodd" clip-rule="evenodd" fill="#CBCCCE" points="183.078,280.527 182.213,274.408 179.847,273.832 
			180.192,270.022 177.537,270.889 178.115,266.791 176.095,267.656 150.468,230.082 150.757,265.925 158.317,282.836 
			158.317,285.145 160.627,285.145 159.183,288.954 161.204,288.377 160.049,290.975 164.147,293.918 		"/>
		<g opacity="0.27">
			<g>
				<defs>
					<rect id="SVGID_7_" x="160.249" y="276.138" width="22.83" height="17.78"/>
				</defs>
				<clipPath id="SVGID_8_">
					<use xlink:href="#SVGID_7_"  overflow="visible"/>
				</clipPath>
				<polygon clip-path="url(#SVGID_8_)" points="182.457,276.138 160.249,291.117 164.147,293.918 183.078,280.527 				"/>
			</g>
		</g>
		
			<rect x="158.637" y="282.61" transform="matrix(0.829 -0.5592 0.5592 0.829 -134.061 151.8527)" fill-rule="evenodd" clip-rule="evenodd" fill="#F5F6F6" width="45.327" height="25.104"/>
		<path fill-rule="evenodd" clip-rule="evenodd" fill="#CBCCCE" d="M196.181,291.551c0-1.466,1.188-2.654,2.654-2.654
			c1.466,0,2.656,1.188,2.656,2.654c0,1.467-1.19,2.655-2.656,2.655C197.369,294.206,196.181,293.018,196.181,291.551"/>
		<g opacity="0.16">
			<g>
				<defs>
					<rect id="SVGID_9_" x="130.037" y="230.082" width="28.688" height="78.46"/>
				</defs>
				<clipPath id="SVGID_10_">
					<use xlink:href="#SVGID_9_"  overflow="visible"/>
				</clipPath>
				<path clip-path="url(#SVGID_10_)" d="M132.144,308.542l0.079-0.249c8.067-25.31,16.531-44.49,25.347-57.657l1.155-1.725
					l-7.541-6.223l6.86-1.499l-7.576-11.107l0.051,6.278l-8.823-1.026l-4.329,25.916l-7.33,46.058
					C130.75,307.731,131.453,308.143,132.144,308.542"/>
			</g>
		</g>
		<path fill-rule="evenodd" clip-rule="evenodd" fill="#DEDFE0" d="M146.659,221.367c5.75,5.211,10.405,10.848,13.968,16.91
			l-14.545,3.176l9.581,7.906c-8.987,13.424-17.53,32.837-25.627,58.236l6.407-76.59L146.659,221.367z"/>
		<path fill-rule="evenodd" clip-rule="evenodd" d="M137.654,368.199l-4.386,13.103l6.118,3.81l2.02-1.155l0.866,1.731
			c7.199,5.385,18.281,6.539,33.245,3.464c0.314-23.61-19.798-29.379-35.842-16.565L137.654,368.199z"/>
		<path fill-rule="evenodd" clip-rule="evenodd" fill="#E3D4AD" d="M24.287,116.342c0-123.423,199.811-120.619,199.811,0v59.903
			c0,32.267-26.157,58.424-58.424,58.424H82.711c-32.268,0-58.424-26.157-58.424-58.424V116.342z"/>
		<g opacity="0.33">
			<g>
				<defs>
					<rect id="SVGID_11_" x="55.155" y="123.939" width="130.428" height="34.019"/>
				</defs>
				<clipPath id="SVGID_12_">
					<use xlink:href="#SVGID_11_"  overflow="visible"/>
				</clipPath>
				<path clip-path="url(#SVGID_12_)" d="M151.563,140.949c0-9.395,7.615-17.01,17.01-17.01c9.394,0,17.01,7.615,17.01,17.01
					c0,9.394-7.616,17.009-17.01,17.009C159.178,157.958,151.563,150.343,151.563,140.949 M55.154,140.949
					c0-9.395,7.615-17.01,17.01-17.01c9.394,0,17.01,7.615,17.01,17.01c0,9.394-7.616,17.009-17.01,17.009
					C62.769,157.958,55.154,150.343,55.154,140.949"/>
			</g>
		</g>
		<path fill-rule="evenodd" clip-rule="evenodd" fill="#E3D4AD" d="M4.588,139.537c0-16.523,8.669-29.918,19.362-29.918
			c10.695,0,19.364,13.395,19.364,29.918s-8.669,29.918-19.364,29.918C13.257,169.455,4.588,156.06,4.588,139.537"/>
		<path fill-rule="evenodd" clip-rule="evenodd" fill="#E3D4AD" d="M205.071,139.537c0-16.523,8.669-29.918,19.362-29.918
			c10.695,0,19.364,13.395,19.364,29.918s-8.669,29.918-19.364,29.918C213.74,169.455,205.071,156.06,205.071,139.537"/>
		<path fill-rule="evenodd" clip-rule="evenodd" d="M202.382,38.892c20.395,19.171,27.634,42.523,21.716,70.055
			c-3.692,11.139-3.916,30.862-0.672,59.163c-8.566-23.025-13.317-44.562-14.253-64.609c-7.671-9.922-14.014-24.871-19.026-44.843
			C132.318,33.875,82.004,40.441,39.212,78.356c-1.109,13.032-2.454,22.31-4.034,27.833c-0.476,25.622-3.434,46.263-8.874,61.92
			c1.137-22.595,0.688-42.989-1.345-61.18C-2.269-26.322,198.953-8.642,202.382,38.892"/>
		<polygon fill-rule="evenodd" clip-rule="evenodd" points="198.953,39.631 210.517,19.865 204.399,35.53 223.426,34.858 
			203.726,43.665 		"/>
		<g opacity="0.31">
			<g>
				<defs>
					<rect id="SVGID_13_" x="26.304" y="25.983" width="195.105" height="140.715"/>
				</defs>
				<clipPath id="SVGID_14_">
					<use xlink:href="#SVGID_13_"  overflow="visible"/>
				</clipPath>
				<path clip-path="url(#SVGID_14_)" fill-rule="evenodd" clip-rule="evenodd" d="M26.304,165.354
					c11.191-22.496,15.047-51.048,11.563-85.653c42.318-26.572,92.855-33.586,151.607-21.043
					c2.231,25.151,8.574,39.427,19.026,42.826c-3.025,20.5,1.279,42.238,12.908,65.214l-7.461-69.988l-21.112-55.062L96.291,25.982
					l-67.23,44.911l0.672,48.272v23.732L26.304,165.354z"/>
			</g>
		</g>
		<path fill-rule="evenodd" clip-rule="evenodd" d="M58.979,140.949c0-9.394,7.615-17.01,17.009-17.01
			c9.394,0,17.01,7.616,17.01,17.01s-7.616,17.009-17.01,17.009C66.594,157.958,58.979,150.343,58.979,140.949"/>
		<path fill-rule="evenodd" clip-rule="evenodd" d="M155.388,140.949c0-9.394,7.615-17.01,17.009-17.01s17.01,7.616,17.01,17.01
			s-7.616,17.009-17.01,17.009S155.388,150.343,155.388,140.949"/>
		<path fill-rule="evenodd" clip-rule="evenodd" d="M49.359,123.199c18.627-22.377,34.472-30.086,47.532-23.127
			C80.904,102.79,65.061,110.499,49.359,123.199"/>
		<g opacity="0.33">
			<g>
				<defs>
					<rect id="SVGID_15_" x="49.474" y="99.986" width="47.457" height="23.17"/>
				</defs>
				<clipPath id="SVGID_16_">
					<use xlink:href="#SVGID_15_"  overflow="visible"/>
				</clipPath>
				<polygon clip-path="url(#SVGID_16_)" fill-rule="evenodd" clip-rule="evenodd" points="49.474,123.156 96.931,100.172 
					85.252,99.986 65.412,109.06 53.361,118.879 				"/>
			</g>
		</g>
		<path fill-rule="evenodd" clip-rule="evenodd" d="M199.025,123.199c-18.627-22.377-34.472-30.086-47.533-23.127
			C167.479,102.79,183.324,110.499,199.025,123.199"/>
		<g opacity="0.33">
			<g>
				<defs>
					<rect id="SVGID_17_" x="151.455" y="99.986" width="47.456" height="23.17"/>
				</defs>
				<clipPath id="SVGID_18_">
					<use xlink:href="#SVGID_17_"  overflow="visible"/>
				</clipPath>
				<polygon clip-path="url(#SVGID_18_)" fill-rule="evenodd" clip-rule="evenodd" points="198.91,123.156 151.454,100.172 
					163.132,99.986 182.973,109.06 195.023,118.879 				"/>
			</g>
		</g>
		<path fill-rule="evenodd" clip-rule="evenodd" fill="#D6BF91" d="M67.218,174.623c0,45.885,113.948,49.709,113.948,0H67.218z"/>
		<path fill="#D6BF91" d="M109.279,161.087c0-8.236,6.677-14.913,14.913-14.913c8.236,0,14.913,6.677,14.913,14.913
			c0,1.021-0.103,2.019-0.299,2.982c-1.381-6.807-7.399-11.93-14.614-11.93c-7.215,0-13.233,5.123-14.614,11.93
			C109.382,163.106,109.279,162.108,109.279,161.087"/>
		<path fill-rule="evenodd" clip-rule="evenodd" d="M118.827,164.305c-17.467-0.729-36.323-0.352-56.568,1.129
			c-6.257,13.068-9.175,23.391-8.754,30.967c6.119-1.982,10.042-9.763,11.766-23.342c20.715-0.735,37.815-1.489,51.297-2.26
			L118.827,164.305z"/>
		<path fill-rule="evenodd" clip-rule="evenodd" d="M129.557,164.305c17.467-0.729,36.324-0.352,56.569,1.129
			c6.257,13.068,9.175,23.391,8.754,30.967c-6.119-1.982-10.042-9.763-11.766-23.342c-20.715-0.735-37.815-1.489-51.297-2.26
			L129.557,164.305z"/>
		<g opacity="0.5">
			<g>
				<defs>
					<rect id="SVGID_19_" x="24.287" y="155.081" width="199.811" height="79.588"/>
				</defs>
				<clipPath id="SVGID_20_">
					<use xlink:href="#SVGID_19_"  overflow="visible"/>
				</clipPath>
				<path clip-path="url(#SVGID_20_)" d="M28.279,155.081c3.967,19.014,13.379,28.709,28.238,29.084
					c-2.142,36.568,20.166,49.18,66.922,37.833l0.753-0.184l0.753,0.184c46.756,11.347,69.064-1.265,66.922-37.833
					c14.858-0.375,24.271-10.07,28.238-29.084c1.275,4.645,2.606,8.978,3.992,12.999v8.165c0,32.267-26.156,58.424-58.423,58.424
					H82.711c-32.268,0-58.424-26.157-58.424-58.424v-8.165C25.674,164.059,27.005,159.726,28.279,155.081"/>
			</g>
		</g>
		<g opacity="0.5">
			<g>
				<defs>
					<rect id="SVGID_21_" x="105.456" y="211.331" width="37.473" height="5.735"/>
				</defs>
				<clipPath id="SVGID_22_">
					<use xlink:href="#SVGID_21_"  overflow="visible"/>
				</clipPath>
				<path clip-path="url(#SVGID_22_)" d="M105.456,211.331h18.736h18.737c-4.222,3.717-10.468,5.629-18.737,5.735
					C115.924,216.96,109.678,215.048,105.456,211.331"/>
			</g>
		</g>
		<path fill-rule="evenodd" clip-rule="evenodd" fill="#D6BF91" d="M22.189,116.119c-10.845,4.119-14.286,15.464-10.324,34.031
			C13.898,131.78,17.339,120.436,22.189,116.119"/>
		<path fill-rule="evenodd" clip-rule="evenodd" fill="#D6BF91" d="M226.38,116.119c10.845,4.119,14.286,15.464,10.324,34.031
			C234.671,131.78,231.23,120.436,226.38,116.119"/>
		<path fill-rule="evenodd" clip-rule="evenodd" fill="#FFFFFF" d="M124.257,189.153c-26.627-0.447-49.899,6.262-52.887-10.706
			h105.699C174.318,197.021,150.992,189.602,124.257,189.153"/>
		<path fill="#F0A8B0" d="M124.013,198.364c10.755,0.181,20.376,2.111,28.036,5.21c-16.941,5.496-38.849,5.039-55.812-0.919
			C103.791,199.771,113.304,198.184,124.013,198.364"/>
		<path fill-rule="evenodd" clip-rule="evenodd" fill="#FFFFFF" d="M76.135,132.524c0-2.445,1.981-4.427,4.427-4.427
			c2.445,0,4.427,1.982,4.427,4.427s-1.982,4.427-4.427,4.427C78.116,136.951,76.135,134.969,76.135,132.524"/>
		<path fill-rule="evenodd" clip-rule="evenodd" fill="#FFFFFF" d="M81.943,135.674c0-1.688,1.369-3.058,3.058-3.058
			c1.688,0,3.057,1.37,3.057,3.058c0,1.689-1.369,3.058-3.057,3.058C83.312,138.732,81.943,137.363,81.943,135.674"/>
		<path fill-rule="evenodd" clip-rule="evenodd" fill="#FFFFFF" d="M172.894,132.524c0-2.445,1.981-4.427,4.427-4.427
			c2.445,0,4.427,1.982,4.427,4.427s-1.982,4.427-4.427,4.427C174.875,136.951,172.894,134.969,172.894,132.524"/>
		<path fill-rule="evenodd" clip-rule="evenodd" fill="#FFFFFF" d="M178.702,135.674c0-1.688,1.369-3.058,3.058-3.058
			s3.057,1.37,3.057,3.058c0,1.689-1.368,3.058-3.057,3.058S178.702,137.363,178.702,135.674"/>
		<polygon fill-rule="evenodd" clip-rule="evenodd" fill="#F5F6F6" points="121.177,246.543 117.988,251.424 119.941,253.246 		"/>
		<polygon fill-rule="evenodd" clip-rule="evenodd" fill="#F5F6F6" points="127.815,246.543 131.004,251.424 129.052,253.246 		"/>
		<path fill-rule="evenodd" clip-rule="evenodd" fill="#F5F6F6" d="M124.984,235.381c-1.711,2.043-2.231,5.611-1.563,10.705
			C123.59,242.017,124.111,238.447,124.984,235.381"/>
		<path fill-rule="evenodd" clip-rule="evenodd" fill="#DEDFE0" d="M122.642,263.465c0-0.647,0.524-1.172,1.171-1.172
			s1.172,0.524,1.172,1.172c0,0.646-0.525,1.171-1.172,1.171S122.642,264.111,122.642,263.465"/>
		<path fill-rule="evenodd" clip-rule="evenodd" fill="#DEDFE0" d="M122.642,271.112c0-0.647,0.524-1.172,1.171-1.172
			s1.172,0.524,1.172,1.172c0,0.646-0.525,1.171-1.172,1.171S122.642,271.759,122.642,271.112"/>
		<path fill-rule="evenodd" clip-rule="evenodd" fill="#DEDFE0" d="M122.642,278.76c0-0.646,0.524-1.172,1.171-1.172
			s1.172,0.525,1.172,1.172c0,0.646-0.525,1.172-1.172,1.172S122.642,279.405,122.642,278.76"/>
		<path fill-rule="evenodd" clip-rule="evenodd" fill="#DEDFE0" d="M122.642,286.407c0-0.647,0.524-1.171,1.171-1.171
			s1.172,0.523,1.172,1.171s-0.525,1.171-1.172,1.171S122.642,287.055,122.642,286.407"/>
		<path fill-rule="evenodd" clip-rule="evenodd" fill="#FFFFFF" d="M76.487,381.489c4.229-10.726,11.622-14.677,22.178-11.854
			C90.236,370.572,82.843,374.523,76.487,381.489"/>
		<path fill-rule="evenodd" clip-rule="evenodd" fill="#FFFFFF" d="M172.082,381.489c-4.229-10.726-11.622-14.677-22.178-11.854
			C158.333,370.572,165.726,374.523,172.082,381.489"/>
		<g opacity="0.21">
			<g>
				<defs>
					<rect id="SVGID_23_" x="136.904" y="238.48" width="17.589" height="17.589"/>
				</defs>
				<clipPath id="SVGID_24_">
					<use xlink:href="#SVGID_23_"  overflow="visible"/>
				</clipPath>
				<path clip-path="url(#SVGID_24_)" d="M138.145,245.729c0.411-0.261,0.906-0.498,1.43-0.713c-0.242-0.557-0.448-1.113-0.57-1.621
					c-0.155-0.645-0.275-1.59,0.335-2.199c0.588-0.589,1.49-0.494,2.111-0.355c0.474,0.107,0.993,0.289,1.514,0.508
					c0.223-0.565,0.471-1.104,0.744-1.55c0.346-0.565,0.93-1.317,1.791-1.317c0.833,0,1.404,0.703,1.745,1.24
					c0.259,0.412,0.498,0.907,0.713,1.431c0.556-0.242,1.113-0.447,1.621-0.568c0.644-0.157,1.589-0.276,2.199,0.333
					c0.589,0.589,0.494,1.49,0.354,2.111c-0.106,0.475-0.288,0.993-0.507,1.515c0.565,0.223,1.104,0.471,1.55,0.744
					c0.565,0.346,1.318,0.929,1.318,1.791c0,0.833-0.703,1.403-1.242,1.743c-0.411,0.262-0.906,0.499-1.43,0.713
					c0.243,0.557,0.448,1.113,0.57,1.622c0.155,0.644,0.275,1.589-0.334,2.198c-0.589,0.59-1.49,0.495-2.111,0.355
					c-0.475-0.106-0.993-0.289-1.516-0.508c-0.222,0.565-0.47,1.104-0.743,1.551c-0.346,0.564-0.93,1.317-1.791,1.317
					c-0.833,0-1.403-0.703-1.744-1.241c-0.261-0.411-0.498-0.906-0.713-1.43c-0.557,0.242-1.112,0.447-1.621,0.569
					c-0.645,0.155-1.589,0.274-2.199-0.335c-0.589-0.588-0.495-1.489-0.355-2.11c0.107-0.475,0.288-0.993,0.507-1.516
					c-0.565-0.222-1.104-0.471-1.55-0.743c-0.564-0.346-1.317-0.93-1.317-1.791C136.904,246.639,137.606,246.069,138.145,245.729"/>
			</g>
		</g>
		<path fill="#6600A1" d="M138.433,246.707c0-0.771,1.38-1.479,2.946-2.033c-0.763-1.561-1.3-3.135-0.734-3.702
			c0.545-0.545,2.021-0.069,3.52,0.646c0.565-1.643,1.298-3.137,2.101-3.137c0.771,0,1.478,1.379,2.032,2.945
			c1.561-0.763,3.136-1.301,3.703-0.733c0.545,0.545,0.07,2.021-0.645,3.521c1.642,0.564,3.137,1.298,3.137,2.1
			c0,0.771-1.38,1.479-2.946,2.033c0.763,1.561,1.301,3.136,0.734,3.703c-0.545,0.545-2.022,0.068-3.521-0.646
			c-0.564,1.644-1.298,3.138-2.099,3.138c-0.771,0-1.479-1.38-2.034-2.946c-1.56,0.764-3.135,1.301-3.703,0.734
			c-0.545-0.545-0.069-2.021,0.646-3.521C139.927,248.242,138.433,247.51,138.433,246.707"/>
	</g>
</g>
</svg>
